# xmcd CD database file
#
# Track frame offsets:
#	150
#	12713
#	17273
#	25778
#	32863
#	39065
#	46020
#	50855
#	58205
#	65213
#	71928
#	79113
#	84060
#	89775
#	96708
#	103983
#	111448
#	116668
#	121415
#	128313
#	134935
#	147098
#	155365
#	163470
#	172385
#	180553
#	187963
#	195985
#	203373
#	210985
#	218255
#	225313
#	231975
#	239605
#	246480
#	254040
#	260943
#	268775
#	274705
#	285248
#	293255
#	300380
#	307538
#	318793
#
# Disc length: 4436 seconds
#
# Revision: 1
# Processed by: cddbd v1.5.1PL0 Copyright (c) Steve Scherf et al.
# Submitted via: CDex 1.51
#
DISCID=8111522c
DTITLE=Various Artist - MOJO
DYEAR=1900
DGENRE=Jazz
TTITLE0=I'VE GOT THE BLUES FOR RAMPART STREET (Ida Cox) - IDA COX
TTITLE1=ST. THOMAS (theme) (Sonny Rollins) - SONNY ROLLINS
TTITLE2=MY FUNNY VALENTINE (Rodgers - Hart) - MILES DAVIS
TTITLE3=IF I WERE A BELL (Frank Loesser) - MILES DAVIS
TTITLE4=LOTUS BLOSSOM (Kenny Dorham) - KENNY DORHAM
TTITLE5=I'LL CLOSE MY EYES (Kaye - Reid) - BLUE MITCHELL
TTITLE6=HOW HIGH THE MOON (Hamilton - Lewis) - CHET BAKER
TTITLE7=WORK SONG (Nat Adderley) - NAT ADDERLEY
TTITLE8=MORITAT (Brecht - Weill) - SONNY ROLLINS
TTITLE9=YOU'D BE SO NICE TO COME HOME TO (Cole Porter) - ART PEPPER
TTITLE10=I WANT TO TALK ABOUT YOU (Billy Eckstine) - JOHN COLTRANE
TTITLE11=GONE WITH THE WIND (Magidson - Wrubel) - ART TATUM and BEN WEBSTER
TTITLE12=FIRE WALTZ (Mal Waldron) - ERIC DOLPHY
TTITLE13=SENTIMENTAL JOURNEY (Green - Brown - Homer) - JACKIE McLEAN
TTITLE14=WHAT'S NEW (Haggart - Burke) - STAN GETZ
TTITLE15=THIS HERE (Bobby Timmons) - CANNONBALL ADDERLEY
TTITLE16=OLIVE REFRACTIONS (Norman Simmons) - JOHNNY GRIFFIN
TTITLE17=MY BLUE HEAVEN (Donaldson - Whiting) - BENNY CARTER
TTITLE18=SUNNY (Bobby Hebb) - SONNY CRISS
TTITLE19=AUTUMN LEAVES (Prevert - mercer- Kosma) - BILL EVANS
TTITLE20=WALTZ FOR DEBBY (Evans -Lees) - BILL EVANS
TTITLE21=GOLDEN EARRINGS (Livingston -Evans - Yong) - RAY BRYANT
TTITLE22=C JAM BLUES (Duke Ellington) - RED GARLAND
TTITLE23=WHEN YOU WISH UPON A STAR (Harline - Washington) - KENNY DREW
TTITLE24='ROUND MIDNIGHT (Monk - Williams - Hanighen) - THELONIOUS MONK
TTITLE25=ON GREEN DOLPHIN STREET (Kaper - Washington) - WYNTON KELLY
TTITLE26=REFLECTION (Ray Bryant) - PHINEAS NEWBORN,JR.
TTITLE27=IN A SENTIMENTAL MOOD (Ellington - Mills - Kurtz) - TOMMY FLANAGAN
TTITLE28=MOANNIN' (Bobby Timmons) - BOBBY TIMMONS
TTITLE29=I COULD HAVE DANCED ALL NIGHT (Lerner - Loewe) - ANDRE PREVIN
TTITLE30=SO IN LOVE (Cole Porter) - DON FRIEDMAN
TTITLE31=FEELIN' FINE (Hampton Hawes) - HAMPTON HAWES
TTITLE32=FOUR ON SIX (Wes Montgomery) - WES MONTGOMERY
TTITLE33=FULL HOUSE (Wes Montgomery) - WES MONTGOMERY
TTITLE34=SATIN DOLL (Duke Ellington ) - BARNEY KESSEL
TTITLE35=WHY WAS I BORN? (Kern - Hammerstein) - BARBARA LEA
TTITLE36=IT COULT HAPPEN TO YOU (Burke - Van Heusen) - CHET BAKER
TTITLE37=NOBODY ELSE BUT ME (Kern - Hammerstein) - BARBARA LEA
TTITLE38=PORGY (Fields - McHugh) - ABBEY LINCOLN
TTITLE39=DJANGO (John Lewis) - THE MODERN JAZZ QUARTET
TTITLE40=SOFTLY, AS IN A MORNING SUNRISE (Hammerstein - Romberg) - THE MODERN JAZZ QUARTET
TTITLE41=YOU AND THE NIGHT AND THE MUSIC (Dietz - Schwartz) - BILL EVANS
TTITLE42=ST. THOMAS (theme) (Sonny Rollins) - SONNY ROLLINS
TTITLE43=FROGGIE  MOORE (Morton - Spikes  - Spikes) - KING OLIVER'S CREOLE JAZZ BAND
EXTD=
EXTT0=
EXTT1=
EXTT2=
EXTT3=
EXTT4=
EXTT5=
EXTT6=
EXTT7=
EXTT8=
EXTT9=
EXTT10=
EXTT11=
EXTT12=
EXTT13=
EXTT14=
EXTT15=
EXTT16=
EXTT17=
EXTT18=
EXTT19=
EXTT20=
EXTT21=
EXTT22=
EXTT23=
EXTT24=
EXTT25=
EXTT26=
EXTT27=
EXTT28=
EXTT29=
EXTT30=
EXTT31=
EXTT32=
EXTT33=
EXTT34=
EXTT35=
EXTT36=
EXTT37=
EXTT38=
EXTT39=
EXTT40=
EXTT41=
EXTT42=
EXTT43=
PLAYORDER=
